<svg xmlns="http://www.w3.org/2000/svg" width="258" height="125" viewBox="0 0 258 125" fill="none"><path d="M139.527 29.8999C139.07 29.8986 138.618 29.9879 138.197 30.1625C137.775 30.3371 137.392 30.5936 137.07 30.9171L136 31.9876L134.93 30.9174C134.607 30.5949 134.225 30.339 133.803 30.1644C133.382 29.9898 132.93 29.8999 132.474 29.8999C132.018 29.8999 131.566 29.9898 131.144 30.1643C130.723 30.3389 130.34 30.5947 130.018 30.9173C129.695 31.2398 129.439 31.6227 129.264 32.0442C129.09 32.4656 129 32.9173 129 33.3735C129 33.8297 129.09 34.2814 129.264 34.7028C129.439 35.1243 129.695 35.5072 130.017 35.8298L135.381 41.1938C135.462 41.275 135.559 41.3395 135.665 41.3835C135.771 41.4274 135.885 41.4501 136 41.4501C136.115 41.4501 136.229 41.4274 136.335 41.3835C136.441 41.3395 136.537 41.275 136.619 41.1938L141.983 35.8298C142.469 35.344 142.8 34.725 142.934 34.0512C143.068 33.3773 142.999 32.6789 142.736 32.0442C142.473 31.4094 142.028 30.8669 141.456 30.4852C140.885 30.1036 140.214 29.8999 139.527 29.8999V29.8999ZM140.745 34.5921L136 39.3376L131.255 34.5921C130.939 34.2674 130.764 33.8313 130.767 33.3783C130.77 32.9253 130.951 32.4917 131.272 32.1713C131.592 31.851 132.026 31.6696 132.479 31.6665C132.932 31.6635 133.368 31.8388 133.692 32.1548L135.381 33.8437C135.462 33.9249 135.559 33.9894 135.665 34.0333C135.771 34.0773 135.885 34.0999 136 34.0999C136.115 34.0999 136.229 34.0773 136.335 34.0333C136.441 33.9894 136.537 33.9249 136.619 33.8437L138.308 32.1547C138.632 31.8378 139.069 31.6616 139.522 31.6643C139.976 31.6671 140.41 31.8484 140.731 32.1692C141.052 32.4899 141.233 32.9241 141.236 33.3777C141.238 33.8312 141.062 34.2676 140.745 34.5921Z" fill="white"></path><path d="M153.071 16.3722L129.446 2.3722C129.311 2.29195 129.156 2.24973 128.999 2.25C128.841 2.25027 128.687 2.29302 128.552 2.37373L104.927 16.4745C104.797 16.5521 104.689 16.6621 104.614 16.7938C104.539 16.9255 104.5 17.0743 104.5 17.2258V53.9758C104.5 54.2078 104.592 54.4304 104.756 54.5945C104.92 54.7586 105.143 54.8508 105.375 54.8508H105.377L152.627 54.75C152.859 54.7495 153.081 54.6571 153.244 54.4931C153.408 54.3291 153.5 54.1068 153.5 53.875V17.125C153.5 16.9731 153.46 16.8238 153.385 16.6919C153.31 16.5599 153.202 16.4497 153.071 16.3722V16.3722ZM122 30.3231V32.875C122 33.0375 122.045 33.1968 122.131 33.335C122.216 33.4732 122.338 33.5849 122.484 33.6576L125.533 35.1822C126.1 35.4636 126.595 35.8717 126.98 36.375C127.364 36.8782 127.627 37.4632 127.75 38.0846L128.142 40.0466C128.176 40.216 128.259 40.3716 128.381 40.4938L128.47 40.5825C128.775 40.8868 128.957 41.293 128.981 41.7231C129.004 42.1532 128.869 42.5769 128.599 42.913L128.317 43.2657L128.035 43.6183C127.682 44.0591 127.241 44.4206 126.739 44.6792C126.237 44.9377 125.686 45.0875 125.122 45.1187C124.559 45.1499 123.995 45.0619 123.467 44.8603C122.94 44.6588 122.461 44.3483 122.062 43.949L121.744 43.6311C121.58 43.467 121.357 43.3748 121.125 43.3748C120.893 43.3748 120.671 43.467 120.507 43.6311C120.342 43.7952 120.25 44.0177 120.25 44.2498C120.25 44.4819 120.342 44.7045 120.507 44.8686L120.825 45.1865C121.36 45.7219 121.996 46.1466 122.695 46.4363C123.395 46.726 124.144 46.8751 124.902 46.8749C125.659 46.8748 126.408 46.7255 127.108 46.4355C127.807 46.1455 128.443 45.7206 128.978 45.185L130.067 46.5469C130.18 46.6888 130.335 46.7918 130.51 46.8417L130.745 46.9091C132.113 47.3047 133.334 48.0925 134.259 49.1751C135.183 50.2577 135.77 51.5875 135.946 53H115.646L115.307 51.8976C114.411 48.9922 114.158 45.9266 114.564 42.9134C114.971 39.9002 116.028 37.0115 117.662 34.4474L118.363 33.3448C118.38 33.3194 118.394 33.2933 118.408 33.2664L118.61 32.8617C118.937 32.2026 119.414 31.6294 120.003 31.1884C120.591 30.7475 121.276 30.4511 122 30.3231ZM131.259 45.2355L130.115 43.8055C130.566 43.1523 130.781 42.365 130.725 41.5732C130.669 40.7814 130.345 40.0322 129.807 39.4488L129.466 37.7412C129.292 36.8583 128.917 36.0271 128.371 35.312C127.825 34.5968 127.122 34.0169 126.316 33.6169L123.75 32.3343V29.6968L127.329 29.3714C127.478 29.3579 127.62 29.3068 127.743 29.2227C127.866 29.1387 127.966 29.0247 128.033 28.8914L128.908 27.1414C129.009 26.9341 129.025 26.695 128.951 26.4762C128.877 26.2575 128.72 26.0768 128.513 25.9735C128.307 25.8703 128.068 25.8528 127.849 25.9249C127.629 25.9971 127.447 26.153 127.342 26.3587L126.685 27.6728L118.064 28.4563L117.088 26.9924L117.203 26.9158C117.854 26.4799 118.35 25.8477 118.618 25.111C118.886 24.3744 118.912 23.5715 118.692 22.819L121.516 21.4071C121.708 21.3112 121.858 21.1484 121.937 20.9494L123.009 18.2698C123.174 17.8563 123.427 17.4839 123.751 17.1785C124.075 16.8731 124.462 16.6421 124.884 16.5017L126.962 15.8089C127.282 15.7031 127.612 15.6309 127.946 15.5936C128.296 15.9961 128.611 16.4283 128.886 16.8853L129.777 18.3707C130.414 19.4316 130.75 20.6456 130.75 21.8828V23.7124C130.75 24.8727 131.211 25.9855 132.031 26.806C132.852 27.6264 133.965 28.0874 135.125 28.0874C136.285 28.0874 137.398 27.6264 138.219 26.806C139.039 25.9855 139.5 24.8727 139.5 23.7124C139.5 23.3577 139.478 23.0033 139.433 22.6514C139.784 23.104 140.119 23.5698 140.439 24.0487C143.288 28.3321 145.088 33.2259 145.695 38.3342C146.221 42.7625 145.829 47.2517 144.542 51.5215L144.094 53.0182L137.709 53.0319C137.534 51.2372 136.826 49.5359 135.677 48.1465C134.528 46.7572 132.989 45.7434 131.259 45.2355V45.2355ZM115.953 25.2891C115.884 25.1859 115.838 25.0692 115.817 24.9468C115.797 24.8244 115.803 24.6991 115.835 24.5792C115.867 24.4592 115.924 24.3475 116.002 24.2513C116.081 24.1551 116.178 24.0766 116.289 24.0211L117.077 23.6274C117.119 23.981 117.062 24.3392 116.913 24.6626C116.764 24.9859 116.528 25.2619 116.233 25.4601L116.118 25.5366L115.953 25.2891ZM135.445 18.6003C136.169 19.2411 136.748 20.0279 137.146 20.909C137.543 21.7901 137.749 22.7454 137.75 23.7119C137.752 24.1998 137.617 24.6783 137.36 25.0933C137.104 25.5083 136.736 25.8431 136.299 26.0598C135.934 26.2411 135.532 26.3354 135.125 26.3354C134.718 26.3354 134.316 26.2411 133.951 26.0598C133.514 25.8431 133.146 25.5083 132.89 25.0933C132.633 24.6783 132.498 24.1998 132.5 23.7119V21.8828C132.5 20.3289 132.078 18.8043 131.278 17.4718L130.387 15.9863C130.362 15.9441 130.334 15.9033 130.308 15.8614C131.772 16.2593 133.154 16.9154 134.388 17.7989C134.749 18.0565 135.101 18.3236 135.445 18.6003ZM151.75 53.0019L145.922 53.0143L146.219 52.0244C147.574 47.5255 147.987 42.7955 147.433 38.1297C146.794 32.7473 144.897 27.5909 141.895 23.0775C140.43 20.8773 138.635 18.9156 136.573 17.2613C136.362 17.0763 136.141 16.9004 135.91 16.7353C135.883 16.7163 135.856 16.6988 135.827 16.6829C135.687 16.579 135.547 16.4758 135.405 16.3745C133.726 15.1718 131.81 14.3417 129.785 13.9396C128.66 13.7151 127.497 13.7876 126.41 14.1497L124.331 14.8424C123.668 15.063 123.06 15.4259 122.551 15.9058C122.042 16.3856 121.644 16.9708 121.385 17.6205L120.436 19.9912L115.507 22.4559C115.174 22.6223 114.88 22.8577 114.645 23.1463C114.41 23.4349 114.239 23.7702 114.143 24.13C114.048 24.4897 114.03 24.8657 114.091 25.2329C114.152 25.6001 114.29 25.9501 114.496 26.2598L115.147 27.235L116.897 29.86C116.984 29.991 117.105 30.096 117.247 30.164C117.389 30.2319 117.547 30.2602 117.704 30.246L118.483 30.1751C117.89 30.7153 117.402 31.3606 117.044 32.0782L116.862 32.4429L116.185 33.5073C114.414 36.285 113.269 39.4145 112.829 42.6788C112.388 45.9431 112.663 49.2642 113.634 52.4117L113.84 53.0822L106.25 53.0985V17.7225L129.002 4.14309L151.75 17.6237V53.0019Z" fill="white"></path><path d="M124.625 40.2031C125.289 40.2031 125.828 39.6645 125.828 39C125.828 38.3355 125.289 37.7969 124.625 37.7969C123.961 37.7969 123.422 38.3355 123.422 39C123.422 39.6645 123.961 40.2031 124.625 40.2031Z" fill="white"></path><path d="M125.172 22.375C125.836 22.375 126.375 21.8363 126.375 21.1719C126.375 20.5074 125.836 19.9688 125.172 19.9688C124.507 19.9688 123.969 20.5074 123.969 21.1719C123.969 21.8363 124.507 22.375 125.172 22.375Z" fill="white"></path><path d="M46.339 92.5H43.336L42.181 89.119H36.868L35.713 92.5H32.752L37.813 78.64H41.278L46.339 92.5ZM37.519 86.977H41.53L39.514 80.929L37.519 86.977ZM62.4019 78.64V92.5H59.0839L54.2329 84.352L53.0359 82.084H53.0149L53.0989 84.478V92.5H50.4949V78.64H53.7919L58.6429 86.767L59.8399 89.056H59.8819L59.7979 86.662V78.64H62.4019ZM71.0173 78.64V92.5H68.1193V78.64H71.0173ZM91.7983 78.64V92.5H89.1733V85.276L89.3203 81.223H89.2783L85.4353 92.5H83.0623L79.2403 81.223H79.1983L79.3453 85.276V92.5H76.7203V78.64H80.9203L83.4193 86.2L84.3013 89.329H84.3433L85.2463 86.221L87.7243 78.64H91.7983ZM109.536 92.5H106.533L105.378 89.119H100.065L98.9099 92.5H95.9489L101.01 78.64H104.475L109.536 92.5ZM100.716 86.977H104.727L102.711 80.929L100.716 86.977ZM116.59 90.169H123.898V92.5H113.692V78.64H116.59V90.169ZM137.266 78.64C138.68 78.64 139.814 79.004 140.668 79.732C141.522 80.46 141.949 81.447 141.949 82.693C141.949 83.939 141.515 84.912 140.647 85.612C139.793 86.298 138.659 86.641 137.245 86.641L137.098 86.746H133.696V92.5H132.016V78.64H137.266ZM137.245 85.171C138.239 85.171 138.974 84.968 139.45 84.562C139.94 84.142 140.185 83.519 140.185 82.693C140.185 81.867 139.94 81.251 139.45 80.845C138.974 80.425 138.239 80.215 137.245 80.215H133.696V85.171H137.245ZM138.211 85.507L142.789 92.5H140.794L136.804 86.431L138.211 85.507ZM149.132 92.5V78.64H158.855V80.215H150.812V84.688H157.07V86.263H150.812V90.925H159.17V92.5H149.132ZM169.075 78.43C170.293 78.43 171.343 78.682 172.225 79.186C173.107 79.676 173.842 80.404 174.43 81.37L173.023 82.462C172.505 81.566 171.917 80.936 171.259 80.572C170.615 80.194 169.831 80.005 168.907 80.005C168.165 80.005 167.549 80.11 167.059 80.32C166.583 80.53 166.233 80.81 166.009 81.16C165.785 81.496 165.673 81.881 165.673 82.315C165.673 82.805 165.827 83.239 166.135 83.617C166.443 83.981 167.059 84.268 167.983 84.478L170.986 85.15C172.316 85.444 173.24 85.892 173.758 86.494C174.29 87.082 174.556 87.817 174.556 88.699C174.556 89.483 174.332 90.183 173.884 90.799C173.45 91.401 172.834 91.87 172.036 92.206C171.238 92.542 170.3 92.71 169.222 92.71C168.214 92.71 167.325 92.577 166.555 92.311C165.799 92.031 165.148 91.66 164.602 91.198C164.056 90.736 163.608 90.218 163.258 89.644L164.728 88.447C164.994 88.979 165.337 89.448 165.757 89.854C166.177 90.26 166.681 90.575 167.269 90.799C167.871 91.023 168.557 91.135 169.327 91.135C170.041 91.135 170.657 91.051 171.175 90.883C171.707 90.701 172.113 90.442 172.393 90.106C172.673 89.756 172.813 89.336 172.813 88.846C172.813 88.398 172.666 87.999 172.372 87.649C172.078 87.285 171.525 87.012 170.713 86.83L167.458 86.095C166.604 85.899 165.911 85.633 165.379 85.297C164.861 84.947 164.483 84.541 164.245 84.079C164.021 83.603 163.909 83.092 163.909 82.546C163.909 81.804 164.112 81.125 164.518 80.509C164.938 79.879 165.533 79.375 166.303 78.997C167.087 78.619 168.011 78.43 169.075 78.43ZM191.349 88.951C191.055 89.735 190.635 90.414 190.089 90.988C189.543 91.548 188.899 91.975 188.157 92.269C187.429 92.563 186.631 92.71 185.763 92.71C184.447 92.71 183.306 92.423 182.34 91.849C181.388 91.261 180.646 90.435 180.114 89.371C179.596 88.307 179.337 87.04 179.337 85.57C179.337 84.1 179.596 82.833 180.114 81.769C180.646 80.705 181.388 79.886 182.34 79.312C183.306 78.724 184.433 78.43 185.721 78.43C186.617 78.43 187.415 78.556 188.115 78.808C188.815 79.046 189.41 79.41 189.9 79.9C190.404 80.376 190.803 80.964 191.097 81.664L189.438 82.441C189.13 81.643 188.682 81.041 188.094 80.635C187.52 80.215 186.771 80.005 185.847 80.005C184.909 80.005 184.083 80.229 183.369 80.677C182.655 81.111 182.095 81.741 181.689 82.567C181.297 83.393 181.101 84.394 181.101 85.57C181.101 86.732 181.29 87.733 181.668 88.573C182.046 89.399 182.585 90.036 183.285 90.484C183.985 90.918 184.811 91.135 185.763 91.135C186.687 91.135 187.492 90.904 188.178 90.442C188.864 89.966 189.361 89.259 189.669 88.321L191.349 88.951ZM207.278 78.64V87.334C207.278 89.112 206.809 90.456 205.871 91.366C204.933 92.262 203.589 92.71 201.839 92.71C200.103 92.71 198.759 92.262 197.807 91.366C196.869 90.456 196.4 89.112 196.4 87.334V78.64H198.08V86.914C198.08 88.356 198.381 89.42 198.983 90.106C199.599 90.792 200.551 91.135 201.839 91.135C203.127 91.135 204.072 90.792 204.674 90.106C205.29 89.42 205.598 88.356 205.598 86.914V78.64H207.278ZM213.641 92.5V78.64H223.364V80.215H215.321V84.688H221.579V86.263H215.321V90.925H223.679V92.5H213.641Z" fill="white"></path><path opacity="0.7" d="M54.364 115.5L57.783 106.01H59.941L63.464 115.5H62.151L58.966 106.842L59.59 107.154H58.056L58.719 106.842L55.638 115.5H54.364ZM56.405 112.666L56.834 111.522H60.929L61.358 112.666H56.405ZM68.105 115.734C67.611 115.734 67.156 115.643 66.74 115.461C66.324 115.279 65.96 115.023 65.648 114.694C65.3447 114.365 65.1063 113.983 64.933 113.55C64.7683 113.117 64.686 112.649 64.686 112.146V111.912C64.686 111.418 64.7683 110.954 64.933 110.521C65.0977 110.088 65.3273 109.706 65.622 109.377C65.9253 109.048 66.2807 108.792 66.688 108.61C67.104 108.419 67.5633 108.324 68.066 108.324C68.5947 108.324 69.0757 108.437 69.509 108.662C69.9423 108.879 70.2977 109.221 70.575 109.689C70.8523 110.157 71.0083 110.764 71.043 111.509L70.523 110.677V106.01H71.771V115.5H70.783V112.419H71.147C71.1123 113.208 70.9477 113.849 70.653 114.343C70.3583 114.828 69.9857 115.184 69.535 115.409C69.093 115.626 68.6163 115.734 68.105 115.734ZM68.274 114.642C68.6987 114.642 69.0843 114.547 69.431 114.356C69.7777 114.165 70.055 113.892 70.263 113.537C70.471 113.173 70.575 112.748 70.575 112.263V111.665C70.575 111.188 70.4667 110.785 70.25 110.456C70.042 110.118 69.7603 109.862 69.405 109.689C69.0583 109.507 68.677 109.416 68.261 109.416C67.8017 109.416 67.3943 109.524 67.039 109.741C66.6923 109.958 66.4193 110.261 66.22 110.651C66.0293 111.041 65.934 111.5 65.934 112.029C65.934 112.558 66.0337 113.021 66.233 113.42C66.4323 113.81 66.7097 114.113 67.065 114.33C67.4203 114.538 67.8233 114.642 68.274 114.642ZM77.6269 115.734C77.0202 115.734 76.4872 115.63 76.0279 115.422C75.5686 115.214 75.1786 114.941 74.8579 114.603C74.5459 114.256 74.3076 113.871 74.1429 113.446C73.9869 113.021 73.9089 112.588 73.9089 112.146V111.912C73.9089 111.47 73.9912 111.037 74.1559 110.612C74.3206 110.179 74.5632 109.793 74.8839 109.455C75.2046 109.108 75.5946 108.835 76.0539 108.636C76.5132 108.428 77.0376 108.324 77.6269 108.324C78.2162 108.324 78.7406 108.428 79.1999 108.636C79.6592 108.835 80.0492 109.108 80.3699 109.455C80.6906 109.793 80.9332 110.179 81.0979 110.612C81.2626 111.037 81.3449 111.47 81.3449 111.912V112.146C81.3449 112.588 81.2626 113.021 81.0979 113.446C80.9419 113.871 80.7036 114.256 80.3829 114.603C80.0709 114.941 79.6852 115.214 79.2259 115.422C78.7666 115.63 78.2336 115.734 77.6269 115.734ZM77.6269 114.616C78.1469 114.616 78.5889 114.503 78.9529 114.278C79.3256 114.044 79.6072 113.732 79.7979 113.342C79.9972 112.952 80.0969 112.514 80.0969 112.029C80.0969 111.535 79.9972 111.093 79.7979 110.703C79.5986 110.313 79.3126 110.005 78.9399 109.78C78.5759 109.555 78.1382 109.442 77.6269 109.442C77.1242 109.442 76.6866 109.555 76.3139 109.78C75.9412 110.005 75.6552 110.313 75.4559 110.703C75.2566 111.093 75.1569 111.535 75.1569 112.029C75.1569 112.514 75.2522 112.952 75.4429 113.342C75.6422 113.732 75.9239 114.044 76.2879 114.278C76.6606 114.503 77.1069 114.616 77.6269 114.616ZM83.474 118.1V108.558H84.462V111.561L84.228 111.535C84.2714 110.79 84.4274 110.183 84.696 109.715C84.9734 109.238 85.333 108.887 85.775 108.662C86.217 108.437 86.698 108.324 87.218 108.324C87.7207 108.324 88.1757 108.419 88.583 108.61C88.999 108.801 89.3544 109.061 89.649 109.39C89.9437 109.719 90.169 110.101 90.325 110.534C90.481 110.967 90.559 111.427 90.559 111.912V112.146C90.559 112.631 90.4767 113.091 90.312 113.524C90.1474 113.957 89.9134 114.339 89.61 114.668C89.3154 114.997 88.96 115.257 88.544 115.448C88.1367 115.639 87.686 115.734 87.192 115.734C86.698 115.734 86.2257 115.626 85.775 115.409C85.3244 115.192 84.9517 114.841 84.657 114.356C84.3624 113.871 84.1934 113.234 84.15 112.445L84.722 113.485V118.1H83.474ZM86.997 114.642C87.465 114.642 87.8724 114.534 88.219 114.317C88.5657 114.092 88.8344 113.784 89.025 113.394C89.2157 112.995 89.311 112.54 89.311 112.029C89.311 111.509 89.2157 111.054 89.025 110.664C88.8344 110.274 88.5657 109.971 88.219 109.754C87.8724 109.529 87.465 109.416 86.997 109.416C86.581 109.416 86.1954 109.511 85.84 109.702C85.4847 109.884 85.1987 110.153 84.982 110.508C84.774 110.855 84.67 111.275 84.67 111.769V112.367C84.67 112.844 84.7784 113.251 84.995 113.589C85.2117 113.927 85.4977 114.187 85.853 114.369C86.2084 114.551 86.5897 114.642 86.997 114.642ZM95.4009 115.578C94.8809 115.578 94.4303 115.504 94.0489 115.357C93.6763 115.21 93.3859 114.958 93.1779 114.603C92.9786 114.239 92.8789 113.749 92.8789 113.134V106.452H94.0749V113.29C94.0749 113.663 94.1746 113.953 94.3739 114.161C94.5819 114.36 94.8723 114.46 95.2449 114.46H96.4669V115.578H95.4009ZM91.6829 109.494V108.558H96.4669V109.494H91.6829ZM105.909 115.5V113.42H105.701V111.015C105.701 110.538 105.575 110.179 105.324 109.936C105.081 109.693 104.722 109.572 104.245 109.572C103.976 109.572 103.699 109.576 103.413 109.585C103.127 109.594 102.854 109.602 102.594 109.611C102.334 109.62 102.109 109.633 101.918 109.65V108.558C102.109 108.541 102.308 108.528 102.516 108.519C102.733 108.502 102.954 108.493 103.179 108.493C103.404 108.484 103.621 108.48 103.829 108.48C104.54 108.48 105.12 108.567 105.571 108.74C106.022 108.905 106.355 109.178 106.572 109.559C106.789 109.94 106.897 110.456 106.897 111.106V115.5H105.909ZM103.634 115.682C103.114 115.682 102.663 115.595 102.282 115.422C101.909 115.24 101.619 114.98 101.411 114.642C101.212 114.304 101.112 113.897 101.112 113.42C101.112 112.926 101.22 112.514 101.437 112.185C101.662 111.856 101.987 111.609 102.412 111.444C102.837 111.271 103.348 111.184 103.946 111.184H105.831V112.12H103.894C103.391 112.12 103.006 112.241 102.737 112.484C102.468 112.727 102.334 113.039 102.334 113.42C102.334 113.801 102.468 114.109 102.737 114.343C103.006 114.577 103.391 114.694 103.894 114.694C104.189 114.694 104.47 114.642 104.739 114.538C105.008 114.425 105.229 114.243 105.402 113.992C105.584 113.732 105.684 113.377 105.701 112.926L106.039 113.42C105.996 113.914 105.874 114.33 105.675 114.668C105.484 114.997 105.216 115.249 104.869 115.422C104.531 115.595 104.119 115.682 103.634 115.682ZM112.666 115.5V106.01H113.914V111.678H113.602C113.602 110.993 113.688 110.404 113.862 109.91C114.044 109.407 114.321 109.022 114.694 108.753C115.066 108.484 115.543 108.35 116.124 108.35H116.176C117.008 108.35 117.636 108.627 118.061 109.182C118.485 109.728 118.698 110.512 118.698 111.535V115.5H117.45V111.275C117.45 110.712 117.289 110.274 116.969 109.962C116.657 109.65 116.249 109.494 115.747 109.494C115.192 109.494 114.746 109.68 114.408 110.053C114.078 110.417 113.914 110.898 113.914 111.496V115.5H112.666ZM124.439 115.734C123.832 115.734 123.299 115.63 122.84 115.422C122.381 115.214 121.991 114.941 121.67 114.603C121.358 114.256 121.12 113.871 120.955 113.446C120.799 113.021 120.721 112.588 120.721 112.146V111.912C120.721 111.47 120.803 111.037 120.968 110.612C121.133 110.179 121.375 109.793 121.696 109.455C122.017 109.108 122.407 108.835 122.866 108.636C123.325 108.428 123.85 108.324 124.439 108.324C125.028 108.324 125.553 108.428 126.012 108.636C126.471 108.835 126.861 109.108 127.182 109.455C127.503 109.793 127.745 110.179 127.91 110.612C128.075 111.037 128.157 111.47 128.157 111.912V112.146C128.157 112.588 128.075 113.021 127.91 113.446C127.754 113.871 127.516 114.256 127.195 114.603C126.883 114.941 126.497 115.214 126.038 115.422C125.579 115.63 125.046 115.734 124.439 115.734ZM124.439 114.616C124.959 114.616 125.401 114.503 125.765 114.278C126.138 114.044 126.419 113.732 126.61 113.342C126.809 112.952 126.909 112.514 126.909 112.029C126.909 111.535 126.809 111.093 126.61 110.703C126.411 110.313 126.125 110.005 125.752 109.78C125.388 109.555 124.95 109.442 124.439 109.442C123.936 109.442 123.499 109.555 123.126 109.78C122.753 110.005 122.467 110.313 122.268 110.703C122.069 111.093 121.969 111.535 121.969 112.029C121.969 112.514 122.064 112.952 122.255 113.342C122.454 113.732 122.736 114.044 123.1 114.278C123.473 114.503 123.919 114.616 124.439 114.616ZM130.286 115.5V108.558H131.274V111.535H131.118C131.118 110.859 131.205 110.287 131.378 109.819C131.56 109.342 131.829 108.978 132.184 108.727C132.54 108.476 132.99 108.35 133.536 108.35H133.588C134.134 108.35 134.585 108.476 134.94 108.727C135.304 108.978 135.573 109.342 135.746 109.819C135.92 110.287 136.006 110.859 136.006 111.535H135.642C135.642 110.859 135.733 110.287 135.915 109.819C136.097 109.342 136.366 108.978 136.721 108.727C137.085 108.476 137.54 108.35 138.086 108.35H138.138C138.684 108.35 139.139 108.476 139.503 108.727C139.867 108.978 140.136 109.342 140.309 109.819C140.491 110.287 140.582 110.859 140.582 111.535V115.5H139.334V111.262C139.334 110.699 139.196 110.265 138.918 109.962C138.641 109.65 138.255 109.494 137.761 109.494C137.25 109.494 136.838 109.659 136.526 109.988C136.214 110.309 136.058 110.759 136.058 111.34V115.5H134.81V111.262C134.81 110.699 134.672 110.265 134.394 109.962C134.117 109.65 133.731 109.494 133.237 109.494C132.726 109.494 132.314 109.659 132.002 109.988C131.69 110.309 131.534 110.759 131.534 111.34V115.5H130.286ZM146.078 115.734C145.472 115.734 144.947 115.63 144.505 115.422C144.063 115.214 143.704 114.941 143.426 114.603C143.149 114.256 142.941 113.871 142.802 113.446C142.672 113.021 142.607 112.588 142.607 112.146V111.912C142.607 111.461 142.672 111.024 142.802 110.599C142.941 110.174 143.149 109.793 143.426 109.455C143.704 109.108 144.055 108.835 144.479 108.636C144.913 108.428 145.42 108.324 146 108.324C146.754 108.324 147.374 108.489 147.859 108.818C148.353 109.139 148.717 109.555 148.951 110.066C149.194 110.577 149.315 111.123 149.315 111.704V112.263H143.153V111.327H148.405L148.119 111.834C148.119 111.34 148.041 110.915 147.885 110.56C147.729 110.196 147.495 109.914 147.183 109.715C146.871 109.516 146.477 109.416 146 109.416C145.506 109.416 145.095 109.529 144.765 109.754C144.445 109.979 144.202 110.287 144.037 110.677C143.881 111.067 143.803 111.518 143.803 112.029C143.803 112.523 143.881 112.969 144.037 113.368C144.202 113.758 144.453 114.07 144.791 114.304C145.129 114.529 145.558 114.642 146.078 114.642C146.624 114.642 147.066 114.521 147.404 114.278C147.751 114.035 147.959 113.754 148.028 113.433H149.198C149.103 113.91 148.912 114.321 148.626 114.668C148.34 115.015 147.981 115.279 147.547 115.461C147.114 115.643 146.624 115.734 146.078 115.734ZM151.425 115.5V106.01H152.673V115.5H151.425ZM150.463 106.998V106.01H152.673V106.998H150.463ZM158.278 115.734C157.671 115.734 157.147 115.63 156.705 115.422C156.263 115.214 155.903 114.941 155.626 114.603C155.349 114.256 155.141 113.871 155.002 113.446C154.872 113.021 154.807 112.588 154.807 112.146V111.912C154.807 111.461 154.872 111.024 155.002 110.599C155.141 110.174 155.349 109.793 155.626 109.455C155.903 109.108 156.254 108.835 156.679 108.636C157.112 108.428 157.619 108.324 158.2 108.324C158.954 108.324 159.574 108.489 160.059 108.818C160.553 109.139 160.917 109.555 161.151 110.066C161.394 110.577 161.515 111.123 161.515 111.704V112.263H155.353V111.327H160.605L160.319 111.834C160.319 111.34 160.241 110.915 160.085 110.56C159.929 110.196 159.695 109.914 159.383 109.715C159.071 109.516 158.677 109.416 158.2 109.416C157.706 109.416 157.294 109.529 156.965 109.754C156.644 109.979 156.402 110.287 156.237 110.677C156.081 111.067 156.003 111.518 156.003 112.029C156.003 112.523 156.081 112.969 156.237 113.368C156.402 113.758 156.653 114.07 156.991 114.304C157.329 114.529 157.758 114.642 158.278 114.642C158.824 114.642 159.266 114.521 159.604 114.278C159.951 114.035 160.159 113.754 160.228 113.433H161.398C161.303 113.91 161.112 114.321 160.826 114.668C160.54 115.015 160.18 115.279 159.747 115.461C159.314 115.643 158.824 115.734 158.278 115.734ZM165.822 115.708C164.912 115.708 164.206 115.513 163.703 115.123C163.209 114.733 162.953 114.2 162.936 113.524H164.106C164.123 113.793 164.258 114.048 164.509 114.291C164.769 114.525 165.207 114.642 165.822 114.642C166.377 114.642 166.801 114.534 167.096 114.317C167.391 114.092 167.538 113.819 167.538 113.498C167.538 113.212 167.43 112.991 167.213 112.835C166.996 112.67 166.645 112.562 166.16 112.51L165.406 112.432C164.747 112.363 164.21 112.168 163.794 111.847C163.378 111.518 163.17 111.058 163.17 110.469C163.17 110.027 163.283 109.65 163.508 109.338C163.733 109.017 164.045 108.775 164.444 108.61C164.843 108.437 165.302 108.35 165.822 108.35C166.602 108.35 167.235 108.523 167.72 108.87C168.205 109.217 168.457 109.732 168.474 110.417H167.304C167.295 110.14 167.165 109.906 166.914 109.715C166.671 109.516 166.307 109.416 165.822 109.416C165.337 109.416 164.968 109.516 164.717 109.715C164.466 109.914 164.34 110.166 164.34 110.469C164.34 110.729 164.427 110.937 164.6 111.093C164.782 111.249 165.077 111.349 165.484 111.392L166.238 111.47C166.983 111.548 167.581 111.756 168.032 112.094C168.483 112.423 168.708 112.891 168.708 113.498C168.708 113.931 168.582 114.317 168.331 114.655C168.088 114.984 167.75 115.244 167.317 115.435C166.884 115.617 166.385 115.708 165.822 115.708ZM173.052 115.708C172.142 115.708 171.435 115.513 170.933 115.123C170.439 114.733 170.183 114.2 170.166 113.524H171.336C171.353 113.793 171.487 114.048 171.739 114.291C171.999 114.525 172.436 114.642 173.052 114.642C173.606 114.642 174.031 114.534 174.326 114.317C174.62 114.092 174.768 113.819 174.768 113.498C174.768 113.212 174.659 112.991 174.443 112.835C174.226 112.67 173.875 112.562 173.39 112.51L172.636 112.432C171.977 112.363 171.44 112.168 171.024 111.847C170.608 111.518 170.4 111.058 170.4 110.469C170.4 110.027 170.512 109.65 170.738 109.338C170.963 109.017 171.275 108.775 171.674 108.61C172.072 108.437 172.532 108.35 173.052 108.35C173.832 108.35 174.464 108.523 174.95 108.87C175.435 109.217 175.686 109.732 175.704 110.417H174.534C174.525 110.14 174.395 109.906 174.144 109.715C173.901 109.516 173.537 109.416 173.052 109.416C172.566 109.416 172.198 109.516 171.947 109.715C171.695 109.914 171.57 110.166 171.57 110.469C171.57 110.729 171.656 110.937 171.83 111.093C172.012 111.249 172.306 111.349 172.714 111.392L173.468 111.47C174.213 111.548 174.811 111.756 175.262 112.094C175.712 112.423 175.938 112.891 175.938 113.498C175.938 113.931 175.812 114.317 175.561 114.655C175.318 114.984 174.98 115.244 174.547 115.435C174.113 115.617 173.615 115.708 173.052 115.708ZM181.224 118.1V108.558H182.212V111.561L181.978 111.535C182.022 110.79 182.178 110.183 182.446 109.715C182.724 109.238 183.083 108.887 183.525 108.662C183.967 108.437 184.448 108.324 184.968 108.324C185.471 108.324 185.926 108.419 186.333 108.61C186.749 108.801 187.105 109.061 187.399 109.39C187.694 109.719 187.919 110.101 188.075 110.534C188.231 110.967 188.309 111.427 188.309 111.912V112.146C188.309 112.631 188.227 113.091 188.062 113.524C187.898 113.957 187.664 114.339 187.36 114.668C187.066 114.997 186.71 115.257 186.294 115.448C185.887 115.639 185.436 115.734 184.942 115.734C184.448 115.734 183.976 115.626 183.525 115.409C183.075 115.192 182.702 114.841 182.407 114.356C182.113 113.871 181.944 113.234 181.9 112.445L182.472 113.485V118.1H181.224ZM184.747 114.642C185.215 114.642 185.623 114.534 185.969 114.317C186.316 114.092 186.585 113.784 186.775 113.394C186.966 112.995 187.061 112.54 187.061 112.029C187.061 111.509 186.966 111.054 186.775 110.664C186.585 110.274 186.316 109.971 185.969 109.754C185.623 109.529 185.215 109.416 184.747 109.416C184.331 109.416 183.946 109.511 183.59 109.702C183.235 109.884 182.949 110.153 182.732 110.508C182.524 110.855 182.42 111.275 182.42 111.769V112.367C182.42 112.844 182.529 113.251 182.745 113.589C182.962 113.927 183.248 114.187 183.603 114.369C183.959 114.551 184.34 114.642 184.747 114.642ZM193.398 115.734C192.792 115.734 192.267 115.63 191.825 115.422C191.383 115.214 191.024 114.941 190.746 114.603C190.469 114.256 190.261 113.871 190.122 113.446C189.992 113.021 189.927 112.588 189.927 112.146V111.912C189.927 111.461 189.992 111.024 190.122 110.599C190.261 110.174 190.469 109.793 190.746 109.455C191.024 109.108 191.375 108.835 191.799 108.636C192.233 108.428 192.74 108.324 193.32 108.324C194.074 108.324 194.694 108.489 195.179 108.818C195.673 109.139 196.037 109.555 196.271 110.066C196.514 110.577 196.635 111.123 196.635 111.704V112.263H190.473V111.327H195.725L195.439 111.834C195.439 111.34 195.361 110.915 195.205 110.56C195.049 110.196 194.815 109.914 194.503 109.715C194.191 109.516 193.797 109.416 193.32 109.416C192.826 109.416 192.415 109.529 192.085 109.754C191.765 109.979 191.522 110.287 191.357 110.677C191.201 111.067 191.123 111.518 191.123 112.029C191.123 112.523 191.201 112.969 191.357 113.368C191.522 113.758 191.773 114.07 192.111 114.304C192.449 114.529 192.878 114.642 193.398 114.642C193.944 114.642 194.386 114.521 194.724 114.278C195.071 114.035 195.279 113.754 195.348 113.433H196.518C196.423 113.91 196.232 114.321 195.946 114.668C195.66 115.015 195.301 115.279 194.867 115.461C194.434 115.643 193.944 115.734 193.398 115.734ZM201.371 115.578C200.851 115.578 200.401 115.504 200.019 115.357C199.647 115.21 199.356 114.958 199.148 114.603C198.949 114.239 198.849 113.749 198.849 113.134V106.452H200.045V113.29C200.045 113.663 200.145 113.953 200.344 114.161C200.552 114.36 200.843 114.46 201.215 114.46H202.437V115.578H201.371ZM197.653 109.494V108.558H202.437V109.494H197.653Z" fill="white"></path></svg>